<?xml version="1.0" encoding="utf-8"?><svg version="1.1" id="Layer_1" xmlns="http://www.w3.org/2000/svg" xmlns:xlink="http://www.w3.org/1999/xlink" x="0px" y="0px" viewBox="0 0 122.88 101.01" style="enable-background:new 0 0 122.88 101.01" xml:space="preserve"><style type="text/css">.st0{fill-rule:evenodd;clip-rule:evenodd;}</style><g><path class="st0" d="M61.44,0l5.88,4.77l7.48-1.2l2.69,7.08l7.08,2.69l-1.2,7.48l4.77,5.88l-4.77,5.88l1.2,7.48l-7.08,2.69 l-2.69,7.08l-7.48-1.2l-5.88,4.77l-5.88-4.77l-7.48,1.2l-2.69-7.08l-7.08-2.69l1.2-7.48l-4.77-5.88l4.77-5.88l-1.2-7.48l7.08-2.69 l2.69-7.08l7.48,1.2L61.44,0L61.44,0z M66.41,84.78h21.91c1.76-1.75,3.69-3.57,5.64-5.42c4.11-3.89,8.4-7.95,12.81-13.03 c5.04-5.81,5.58-7.82,7.11-13.51c0.29-1.07,0.61-2.27,1.03-3.76l2.62-9.21l0.03-0.1c1.4-4.1,1.51-6.81,0.93-8.37 c-0.18-0.48-0.41-0.8-0.68-0.97c-0.21-0.14-0.49-0.19-0.78-0.16c-0.68,0.07-1.45,0.5-2.15,1.27l-7.78,18.53 c-0.07,0.17-0.17,0.33-0.28,0.47c-0.46,0.83-1.08,1.64-1.88,2.41l-13.8,15.39c-0.75,0.84-2.04,0.91-2.87,0.16 c-0.84-0.75-0.91-2.04-0.16-2.87c1.87-2.08,16.37-16.31,15.63-19.5c-0.92-3.93-10.8,6.16-11.98,7.2l-0.03,0.03 c-5.79,5.48-8.28,6.78-12.82,9.15c-0.95,0.5-1.99,1.04-3.28,1.74c-0.51,0.28-1.01,0.62-1.5,0.99c-0.52,0.4-1.02,0.81-1.49,1.21 c-2.4,2.02-3.66,3.66-4.38,5.47c-0.75,1.88-1.02,4.17-1.39,7.31c-0.15,1.26-0.26,2.52-0.35,3.77 C66.47,83.59,66.44,84.19,66.41,84.78L66.41,84.78L66.41,84.78z M56.47,84.78H34.55c-1.76-1.75-3.69-3.57-5.65-5.42 c-4.11-3.89-8.4-7.95-12.81-13.03c-5.04-5.81-5.58-7.82-7.11-13.51c-0.29-1.07-0.61-2.27-1.03-3.76l-2.62-9.21l-0.03-0.1 c-1.4-4.1-1.51-6.81-0.93-8.37c0.18-0.48,0.41-0.8,0.68-0.97c0.21-0.14,0.49-0.19,0.78-0.16c0.68,0.07,1.45,0.5,2.15,1.27 l7.78,18.53c0.07,0.17,0.17,0.33,0.28,0.47c0.46,0.83,1.08,1.64,1.88,2.41l13.8,15.39c0.75,0.84,2.04,0.91,2.87,0.16 c0.84-0.75,0.91-2.04,0.16-2.87C32.9,63.52,18.4,49.29,19.14,46.1c0.92-3.93,10.8,6.16,11.98,7.2l0.03,0.03 c5.79,5.48,8.28,6.78,12.82,9.15c0.95,0.5,1.99,1.04,3.28,1.74c0.51,0.28,1.01,0.62,1.5,0.99c0.52,0.4,1.02,0.81,1.49,1.21 c2.4,2.02,3.66,3.66,4.38,5.47c0.75,1.88,1.02,4.17,1.39,7.31c0.15,1.26,0.26,2.52,0.35,3.77C56.41,83.59,56.44,84.19,56.47,84.78 L56.47,84.78L56.47,84.78z M29.45,85.48c-0.31,0.36-0.5,0.83-0.5,1.34v12.14c0,1.13,0.92,2.04,2.04,2.04h27.58 c1.13,0,2.04-0.92,2.04-2.04V86.71c0-1.3-0.08-2.7-0.17-4c-0.09-1.33-0.21-2.65-0.36-3.96c-0.4-3.43-0.7-5.94-1.66-8.35 c-0.99-2.47-2.58-4.6-5.53-7.09c-0.54-0.46-1.09-0.92-1.67-1.35c-0.61-0.46-1.27-0.9-2.01-1.31c-1.2-0.65-2.32-1.24-3.34-1.78 c-4.2-2.2-6.5-3.4-11.91-8.52c-0.04-0.04-0.09-0.08-0.13-0.11l-5.22-4.61c-2.64-3.09-7.87-6.77-11.68-3.43 c-2.03-4.83-4.03-15.36-10.67-16.01c-1.21-0.12-2.38,0.14-3.4,0.8c-0.97,0.63-1.77,1.61-2.27,2.96c-0.88,2.35-0.86,6,0.86,11.05 l2.6,9.15c0.38,1.32,0.71,2.59,1.02,3.71c1.7,6.35,2.3,8.6,7.97,15.12c4.49,5.17,8.89,9.33,13.1,13.32 C27.23,83.36,28.33,84.41,29.45,85.48L29.45,85.48L29.45,85.48z M33.35,88.86c0.27,0.06,0.55,0.06,0.83,0h22.34v8.06H33.03v-8.06 H33.35L33.35,88.86z M93.43,85.48c0.31,0.36,0.5,0.83,0.5,1.34v12.14c0,1.13-0.91,2.04-2.04,2.04H64.32 c-1.13,0-2.04-0.92-2.04-2.04V86.71c0-0.07,0-0.15,0.01-0.22c0.03-1.31,0.08-2.58,0.16-3.78c0.09-1.33,0.21-2.65,0.36-3.96 c0.4-3.43,0.7-5.94,1.66-8.35c0.99-2.47,2.58-4.6,5.53-7.09c0.54-0.46,1.09-0.92,1.67-1.35c0.61-0.46,1.27-0.9,2.01-1.31 c1.2-0.65,2.32-1.24,3.34-1.78c4.2-2.2,6.5-3.4,11.91-8.52c0.04-0.04,0.09-0.08,0.13-0.11l5.22-4.61 c2.64-3.09,7.87-6.77,11.68-3.43c0.99-2.37,4.41-11.65,5.59-13.07c1.46-1.75,3.31-2.77,5.08-2.95c1.21-0.12,2.38,0.14,3.4,0.8 c0.97,0.63,1.77,1.61,2.27,2.96c0.88,2.35,0.86,6-0.86,11.05l-2.6,9.15c-0.38,1.32-0.71,2.59-1.02,3.71 c-1.7,6.35-2.3,8.6-7.97,15.12c-4.49,5.17-8.88,9.33-13.1,13.32C95.65,83.36,94.55,84.41,93.43,85.48L93.43,85.48L93.43,85.48z M89.53,88.86c-0.27,0.06-0.55,0.06-0.83,0H66.36v8.06h23.49v-8.06H89.53L89.53,88.86z M61.44,17.18l2.75,6.72l7.25,0.54 l-5.54,4.69l1.73,7.06l-6.18-3.83l-6.18,3.83L57,29.14l-5.56-4.69l7.25-0.54l2.75-6.72H61.44L61.44,17.18z M61.44,11.61 c8.33,0,15.08,6.76,15.08,15.08c0,8.33-6.76,15.08-15.08,15.08c-8.33,0-15.08-6.76-15.08-15.08 C46.36,18.37,53.11,11.61,61.44,11.61L61.44,11.61z"/></g></svg>